<svg width="36" height="36" viewBox="0 0 36 36" fill="none" xmlns="http://www.w3.org/2000/svg">
<g clip-path="url(#clip0_1137_7564)">
<path d="M33.71 17.2901L18.71 2.29006C18.5227 2.10381 18.2692 1.99927 18.005 1.99927C17.7408 1.99927 17.4874 2.10381 17.3 2.29006L2.30003 17.2901C2.1362 17.4814 2.05059 17.7274 2.06032 17.9791C2.07004 18.2308 2.17437 18.4695 2.35246 18.6476C2.53056 18.8257 2.7693 18.93 3.02097 18.9398C3.27265 18.9495 3.51873 18.8639 3.71003 18.7001L18 4.41006L32.29 18.7101C32.4813 18.8739 32.7274 18.9595 32.9791 18.9498C33.2308 18.9401 33.4695 18.8357 33.6476 18.6576C33.8257 18.4795 33.93 18.2408 33.9397 17.9891C33.9495 17.7374 33.8639 17.4914 33.7 17.3001L33.71 17.2901Z" fill="#DFF2FF"/>
<path d="M28 32H23V22H13V32H8V18L6 20V32C6 32.5304 6.21071 33.0392 6.58579 33.4142C6.96086 33.7893 7.46957 34 8 34H15V24H21V34H28C28.5304 34 29.0391 33.7893 29.4142 33.4142C29.7893 33.0392 30 32.5304 30 32V19.76L28 17.76V32Z" fill="#DFF2FF"/>
</g>
<defs>
<clipPath id="clip0_1137_7564">
<rect width="36" height="36" fill="white"/>
</clipPath>
</defs>
</svg>
