<svg xmlns="http://www.w3.org/2000/svg"  viewBox="0 0 16 16" width="16px" height="16px"><path d="M 11.734375 2 C 11.636719 2 11.539063 2.011719 11.441406 2.03125 L 6.1875 3.15625 C 5.496094 3.304688 5 3.921875 5 4.625 L 5 10.28125 C 4.703125 10.109375 4.367188 10 4 10 C 2.902344 10 2 10.902344 2 12 C 2 13.097656 2.902344 14 4 14 C 5.097656 14 6 13.097656 6 12 L 6 6.40625 L 12 5.117188 L 12 9.28125 C 11.703125 9.109375 11.367188 9 11 9 C 9.902344 9 9 9.902344 9 11 C 9 12.097656 9.902344 13 11 13 C 12.097656 13 13 12.097656 13 11 L 13 3.292969 C 13 2.890625 12.828125 2.511719 12.535156 2.273438 C 12.3125 2.097656 12.03125 2 11.734375 2 Z M 11.808594 3.007813 C 11.851563 3.015625 11.878906 3.03125 11.90625 3.054688 C 11.957031 3.09375 12 3.160156 12 3.292969 L 12 4.09375 L 6 5.382813 L 6 4.625 C 6 4.386719 6.160156 4.1875 6.394531 4.136719 L 11.652344 3.007813 C 11.714844 2.996094 11.765625 2.996094 11.808594 3.007813 Z M 11 10 C 11.558594 10 12 10.441406 12 11 C 12 11.558594 11.558594 12 11 12 C 10.441406 12 10 11.558594 10 11 C 10 10.441406 10.441406 10 11 10 Z M 4 11 C 4.558594 11 5 11.441406 5 12 C 5 12.558594 4.558594 13 4 13 C 3.441406 13 3 12.558594 3 12 C 3 11.441406 3.441406 11 4 11 Z"/></svg>