<svg width="34" height="34" viewBox="0 0 34 34" fill="none" xmlns="http://www.w3.org/2000/svg">
<path d="M18.275 14.875C17.425 14.6625 16.575 14.2375 15.9375 13.6C15.3 13.3875 15.0875 12.75 15.0875 12.325C15.0875 11.9 15.3 11.2625 15.725 11.05C16.3625 10.625 17 10.2 17.6375 10.4125C18.9125 10.4125 19.975 11.05 20.6125 11.9L22.525 9.35C21.8875 8.7125 21.25 8.2875 20.6125 7.8625C19.975 7.4375 19.125 7.225 18.275 7.225V4.25H15.725V7.225C14.6625 7.4375 13.6 8.075 12.75 8.925C11.9 9.9875 11.2625 11.2625 11.475 12.5375C11.475 13.8125 11.9 15.0875 12.75 15.9375C13.8125 17 15.3 17.6375 16.575 18.275C17.2125 18.4875 18.0625 18.9125 18.7 19.3375C19.125 19.7625 19.3375 20.4 19.3375 21.0375C19.3375 21.675 19.125 22.3125 18.7 22.95C18.0625 23.5875 17.2125 23.8 16.575 23.8C15.725 23.8 14.6625 23.5875 14.025 22.95C13.3875 22.525 12.75 21.8875 12.325 21.25L10.2 23.5875C10.8375 24.4375 11.475 25.075 12.325 25.7125C13.3875 26.35 14.6625 26.9875 15.9375 26.9875V29.75H18.275V26.5625C19.55 26.35 20.6125 25.7125 21.4625 24.8625C22.525 23.8 23.1625 22.1 23.1625 20.6125C23.1625 19.3375 22.7375 17.85 21.675 17C20.6125 15.9375 19.55 15.3 18.275 14.875ZM17 0C7.65 0 0 7.65 0 17C0 26.35 7.65 34 17 34C26.35 34 34 26.35 34 17C34 7.65 26.35 0 17 0ZM17 31.6625C8.925 31.6625 2.3375 25.075 2.3375 17C2.3375 8.925 8.925 2.3375 17 2.3375C25.075 2.3375 31.6625 8.925 31.6625 17C31.6625 25.075 25.075 31.6625 17 31.6625Z" fill="#DFF2FF"/>
</svg>
