<?xml version="1.0" standalone="no"?>
<!DOCTYPE svg PUBLIC "-//W3C//DTD SVG 20010904//EN"
 "http://www.w3.org/TR/2001/REC-SVG-20010904/DTD/svg10.dtd">
<svg version="1.0" xmlns="http://www.w3.org/2000/svg"
 width="17.000000pt" height="17.000000pt" viewBox="0 0 17.000000 17.000000"
 preserveAspectRatio="xMidYMid meet">

<g transform="translate(0.000000,17.000000) scale(0.100000,-0.100000)"
fill="#000000" stroke="none">
<path d="M30 148 c-16 -6 -20 -16 -20 -56 0 -50 13 -72 40 -71 9 0 6 4 -7 9
-18 7 -23 17 -23 46 l0 36 65 -4 c56 -3 65 -1 65 14 0 9 -4 20 -10 23 -15 9
-87 11 -110 3z m110 -18 c0 -6 -27 -10 -61 -10 -37 0 -58 4 -54 10 8 13 115
13 115 0z"/>
<path d="M90 75 c-26 -32 13 -81 48 -59 34 22 22 74 -18 74 -10 0 -23 -7 -30
-15z m55 -25 c0 -20 -5 -25 -25 -25 -28 0 -41 32 -18 46 23 15 43 5 43 -21z"/>
</g>
</svg>
