<svg width="36" height="36" viewBox="0 0 36 36" fill="none" xmlns="http://www.w3.org/2000/svg">
<path d="M17.9996 5.39998C17.2835 5.39998 16.5968 5.68444 16.0904 6.19079C15.5841 6.69714 15.2996 7.38389 15.2996 8.09998C15.2996 8.81606 15.5841 9.50282 16.0904 10.0092C16.5968 10.5155 17.2835 10.8 17.9996 10.8C18.7157 10.8 19.4024 10.5155 19.9088 10.0092C20.4151 9.50282 20.6996 8.81606 20.6996 8.09998C20.6996 7.38389 20.4151 6.69714 19.9088 6.19079C19.4024 5.68444 18.7157 5.39998 17.9996 5.39998ZM13.4996 8.09998C13.4996 6.9065 13.9737 5.76191 14.8176 4.918C15.6615 4.07408 16.8061 3.59998 17.9996 3.59998C19.1931 3.59998 20.3377 4.07408 21.1816 4.918C22.0255 5.76191 22.4996 6.9065 22.4996 8.09998C22.4996 9.29345 22.0255 10.438 21.1816 11.282C20.3377 12.1259 19.1931 12.6 17.9996 12.6C16.8061 12.6 15.6615 12.1259 14.8176 11.282C13.9737 10.438 13.4996 9.29345 13.4996 8.09998ZM27.8996 7.19998C27.4222 7.19998 26.9644 7.38962 26.6268 7.72718C26.2893 8.06475 26.0996 8.52259 26.0996 8.99998C26.0996 9.47737 26.2893 9.9352 26.6268 10.2728C26.9644 10.6103 27.4222 10.8 27.8996 10.8C28.377 10.8 28.8348 10.6103 29.1724 10.2728C29.51 9.9352 29.6996 9.47737 29.6996 8.99998C29.6996 8.52259 29.51 8.06475 29.1724 7.72718C28.8348 7.38962 28.377 7.19998 27.8996 7.19998ZM24.2996 8.99998C24.2996 8.0452 24.6789 7.12952 25.354 6.45439C26.0292 5.77926 26.9448 5.39998 27.8996 5.39998C28.8544 5.39998 29.7701 5.77926 30.4452 6.45439C31.1203 7.12952 31.4996 8.0452 31.4996 8.99998C31.4996 9.95475 31.1203 10.8704 30.4452 11.5456C29.7701 12.2207 28.8544 12.6 27.8996 12.6C26.9448 12.6 26.0292 12.2207 25.354 11.5456C24.6789 10.8704 24.2996 9.95475 24.2996 8.99998ZM6.29961 8.99998C6.29961 8.52259 6.48925 8.06475 6.82682 7.72718C7.16438 7.38962 7.62222 7.19998 8.09961 7.19998C8.577 7.19998 9.03484 7.38962 9.3724 7.72718C9.70997 8.06475 9.89961 8.52259 9.89961 8.99998C9.89961 9.47737 9.70997 9.9352 9.3724 10.2728C9.03484 10.6103 8.577 10.8 8.09961 10.8C7.62222 10.8 7.16438 10.6103 6.82682 10.2728C6.48925 9.9352 6.29961 9.47737 6.29961 8.99998ZM8.09961 5.39998C7.14483 5.39998 6.22916 5.77926 5.55402 6.45439C4.87889 7.12952 4.49961 8.0452 4.49961 8.99998C4.49961 9.95475 4.87889 10.8704 5.55402 11.5456C6.22916 12.2207 7.14483 12.6 8.09961 12.6C9.05439 12.6 9.97006 12.2207 10.6452 11.5456C11.3203 10.8704 11.6996 9.95475 11.6996 8.99998C11.6996 8.0452 11.3203 7.12952 10.6452 6.45439C9.97006 5.77926 9.05439 5.39998 8.09961 5.39998ZM9.17961 26.9964C8.69223 27.0208 8.20497 26.9458 7.74745 26.7761C7.28993 26.6064 6.87169 26.3454 6.51815 26.009C6.16461 25.6726 5.88315 25.2679 5.69086 24.8194C5.49858 24.3709 5.39949 23.888 5.39961 23.4V16.65C5.39961 16.5306 5.44702 16.4162 5.53141 16.3318C5.6158 16.2474 5.73026 16.2 5.84961 16.2H9.02481C9.09681 15.5394 9.33081 14.9256 9.68181 14.4H5.84961C4.60761 14.4 3.59961 15.408 3.59961 16.65V23.4C3.59953 24.1706 3.76438 24.9323 4.08309 25.6339C4.40181 26.3355 4.867 26.9608 5.44741 27.4677C6.02782 27.9747 6.71001 28.3515 7.44813 28.5729C8.18625 28.7943 8.96321 28.8552 9.72681 28.7514C9.48454 28.1867 9.30117 27.5986 9.17961 26.9964ZM26.2724 28.7514C27.036 28.8552 27.813 28.7943 28.5511 28.5729C29.2892 28.3515 29.9714 27.9747 30.5518 27.4677C31.1322 26.9608 31.5974 26.3355 31.9161 25.6339C32.2348 24.9323 32.3997 24.1706 32.3996 23.4V16.65C32.3996 15.408 31.3916 14.4 30.1496 14.4H26.3174C26.6702 14.9256 26.9024 15.5394 26.9744 16.2H30.1496C30.269 16.2 30.3834 16.2474 30.4678 16.3318C30.5522 16.4162 30.5996 16.5306 30.5996 16.65V23.4C30.5997 23.888 30.5006 24.3709 30.3084 24.8194C30.1161 25.2679 29.8346 25.6726 29.4811 26.009C29.1275 26.3454 28.7093 26.6064 28.2518 26.7761C27.7942 26.9458 27.307 27.0208 26.8196 26.9964C26.698 27.5986 26.5146 28.1867 26.2724 28.7514ZM13.0496 14.4C11.8076 14.4 10.7996 15.408 10.7996 16.65V25.2C10.7996 27.1095 11.5582 28.9409 12.9084 30.2911C14.2587 31.6414 16.0901 32.4 17.9996 32.4C19.9092 32.4 21.7405 31.6414 23.0908 30.2911C24.441 28.9409 25.1996 27.1095 25.1996 25.2V16.65C25.1996 15.408 24.1916 14.4 22.9496 14.4H13.0496ZM12.5996 16.65C12.5996 16.5306 12.647 16.4162 12.7314 16.3318C12.8158 16.2474 12.9303 16.2 13.0496 16.2H22.9496C23.069 16.2 23.1834 16.2474 23.2678 16.3318C23.3522 16.4162 23.3996 16.5306 23.3996 16.65V25.2C23.3996 26.6321 22.8307 28.0057 21.818 29.0184C20.8053 30.031 19.4318 30.6 17.9996 30.6C16.5674 30.6 15.1939 30.031 14.1812 29.0184C13.1685 28.0057 12.5996 26.6321 12.5996 25.2V16.65Z" fill="#DFF2FF"/>
</svg>
