<svg width="59" height="48" viewBox="0 0 59 48" fill="none" xmlns="http://www.w3.org/2000/svg">
<path d="M57.9547 17.8932C57.6824 17.5421 57.3331 17.2582 56.9338 17.0633C56.5344 16.8685 56.0957 16.7678 55.6514 16.7692H47.5909V10.3873C47.59 9.64121 47.2932 8.92595 46.7657 8.39841C46.2381 7.87086 45.5228 7.57413 44.7768 7.57329H28.1809L26.017 2.37792C25.8041 1.86458 25.4436 1.426 24.9811 1.11777C24.5187 0.809529 23.9752 0.645508 23.4195 0.646489H3.21634C2.47029 0.647359 1.75504 0.944112 1.2275 1.47165C0.699967 1.99919 0.403214 2.71443 0.402344 3.46048V47.8353H51.6276L58.4863 20.4002C58.5954 19.9695 58.6042 19.5195 58.5121 19.0849C58.4199 18.6502 58.2292 18.2425 57.9547 17.8932ZM4.29866 43.939V4.54281H22.6979L25.5836 11.4696H43.6948V16.7692H15.2068C14.5548 16.7684 13.9213 16.9859 13.4074 17.3871C12.8935 17.7883 12.5288 18.35 12.3713 18.9827L6.13273 43.939H4.29866ZM48.5855 43.939H10.149L15.9673 20.6655H54.4038L48.5855 43.939Z" fill="black"/>
</svg>
