<svg width="53" height="53" viewBox="0 0 53 53" fill="none" xmlns="http://www.w3.org/2000/svg">
<path d="M26.5467 0.908203C12.2798 0.908203 0.677734 12.513 0.677734 26.7745C0.677734 41.0359 12.2798 52.6407 26.5467 52.6407C40.8082 52.6407 52.413 41.0359 52.413 26.7745C52.413 12.513 40.8082 0.908203 26.5467 0.908203V0.908203ZM48.6085 26.7745C48.6085 31.8211 46.8948 36.4743 44.0388 40.1926C43.2304 39.5621 42.3709 37.8566 43.1792 36.089C43.9956 34.3107 44.2085 30.1937 44.0199 28.5905C43.8421 26.99 43.0095 23.1343 40.7489 23.0966C38.491 23.0643 36.9417 22.3179 35.5999 19.6397C32.8166 14.0677 40.8243 12.998 38.041 9.91559C37.2623 9.04799 33.2369 13.4776 32.6468 7.57416C32.6091 7.15113 33.0106 6.51795 33.5521 5.86052C42.2928 8.79741 48.6085 17.0611 48.6085 26.7745V26.7745ZM23.5155 4.93095C22.9874 5.96021 21.5944 6.37784 20.7483 7.15113C18.9054 8.81897 18.1132 8.58725 17.1217 10.1877C16.122 11.7882 12.8995 14.0919 12.8995 15.2505C12.8995 16.4091 14.527 17.7725 15.3407 17.5084C16.1544 17.239 18.3018 17.2551 19.5628 17.697C20.8265 18.1443 30.1087 18.5916 27.1502 26.4377C26.2126 28.9327 22.1036 28.5124 21.0097 32.6429C20.8453 33.2491 20.2768 35.8384 20.2418 36.6845C20.1744 37.994 21.1687 42.9301 19.905 42.9301C18.6359 42.9301 15.2221 38.514 15.2221 37.7137C15.2221 36.9135 14.3384 34.1086 14.3384 31.7052C14.3384 29.3045 10.2483 29.3422 10.2483 26.1494C10.2483 23.2717 12.4657 21.8383 11.9673 20.4561C11.4796 19.082 7.58349 19.0361 5.95876 18.8664C7.37937 15.1908 9.7557 11.9612 12.8422 9.51131C15.9287 7.06144 19.6134 5.48019 23.5155 4.93095V4.93095ZM19.6059 47.71C20.9316 47.0094 21.0663 46.1041 22.268 46.0583C23.6421 45.9963 24.7603 45.5221 26.3096 45.1799C27.6837 44.8809 30.1437 43.4852 32.3073 43.3073C34.1341 43.1591 37.7365 43.4016 38.7065 45.1638C35.9251 47.0108 32.7596 48.2 29.4501 48.6412C26.1405 49.0824 22.774 48.7639 19.6059 47.71V47.71Z" fill="black"/>
</svg>
