<svg width="1764" height="1513" viewBox="0 0 1764 1513" fill="none" xmlns="http://www.w3.org/2000/svg">
<path fill-rule="evenodd" clip-rule="evenodd" d="M0 496.41C0 492.546 4.19613 490.142 7.52935 492.097L879.327 1003.35C880.889 1004.27 882.824 1004.27 884.385 1003.35L1756.18 492.097C1759.52 490.142 1763.71 492.546 1763.71 496.41V1001.95C1763.71 1003.74 1762.76 1005.39 1761.21 1006.28L884.353 1511.59C882.807 1512.48 880.905 1512.48 879.36 1511.59L2.50351 1006.28C0.954525 1005.39 0 1003.74 0 1001.95V496.41Z" fill="#333333"/>
<ellipse cx="869.155" cy="74.7336" rx="142.741" ry="74.7336" fill="#333333"/>
<ellipse cx="869.155" cy="582.921" rx="142.741" ry="74.7336" fill="#333333"/>
<ellipse cx="1311.57" cy="328.829" rx="142.741" ry="74.7336" fill="#333333"/>
<ellipse cx="432.706" cy="328.829" rx="142.741" ry="74.7336" fill="#333333"/>
<path d="M699.508 116.89C699.508 111.804 706.78 109.612 710.035 113.519C777.949 195.032 961.494 195.638 1026.24 115.337C1029.51 111.283 1037.3 113.486 1037.3 118.694V272.222C1037.3 273.417 1036.88 274.573 1036.09 275.47C959.839 362.005 777.077 359.107 700.776 275.482C699.951 274.577 699.508 273.397 699.508 272.173V116.89Z" fill="#333333"/>
<path d="M699.508 628.065C699.508 622.98 706.78 620.787 710.035 624.694C777.949 706.208 961.494 706.814 1026.24 626.513C1029.51 622.459 1037.3 624.662 1037.3 629.87V783.398C1037.3 784.592 1036.88 785.749 1036.09 786.645C959.839 873.181 777.077 870.283 700.776 786.658C699.951 785.753 699.508 784.573 699.508 783.349V628.065Z" fill="#333333"/>
<path d="M1143.42 372.477C1143.42 367.392 1150.69 365.2 1153.95 369.107C1221.86 450.62 1405.41 451.226 1470.16 370.925C1473.43 366.871 1481.22 369.074 1481.22 374.282V527.81C1481.22 529.005 1480.79 530.161 1480 531.057C1403.75 617.593 1220.99 614.695 1144.69 531.07C1143.86 530.165 1143.42 528.985 1143.42 527.761V372.477Z" fill="#333333"/>
<path d="M264.559 372.477C264.559 367.392 271.831 365.2 275.086 369.107C342.999 450.62 526.545 451.226 591.296 370.925C594.565 366.871 602.354 369.074 602.354 374.282V527.81C602.354 529.005 601.93 530.161 601.14 531.057C524.889 617.593 342.128 614.695 265.827 531.07C265.002 530.165 264.559 528.985 264.559 527.761V372.477Z" fill="#333333"/>
</svg>
