<svg width="8415" height="1513" viewBox="0 0 8415 1513" fill="none" xmlns="http://www.w3.org/2000/svg">
<path d="M2458.09 985.375H2146.35V206.998H2435.38C2504.89 207.687 2560.63 223.172 2602.61 253.453C2645.27 283.735 2666.61 336.04 2666.61 410.367C2666.61 445.466 2660.07 476.78 2646.99 504.309C2634.61 531.838 2612.58 553.517 2580.93 569.346V570.378C2636.67 577.949 2676.93 599.628 2701.7 635.415C2727.17 670.514 2739.9 715.248 2739.9 769.618C2739.9 850.828 2710.65 907.262 2652.16 938.92C2594.35 969.89 2529.66 985.375 2458.09 985.375ZM2348.67 663.288V830.525H2374.48C2375.16 831.213 2375.85 831.558 2376.54 831.558C2377.92 831.558 2379.29 831.558 2380.67 831.558C2388.93 831.558 2397.53 831.558 2406.48 831.558C2415.42 831.558 2424.37 831.213 2433.32 830.525C2458.78 828.461 2482.18 821.922 2503.51 810.911C2524.84 799.899 2535.51 779.253 2535.51 748.971C2535.51 713.872 2523.81 691.161 2500.41 680.837C2477.01 670.514 2451.55 665.008 2424.03 664.32C2417.83 664.32 2411.29 664.32 2404.41 664.32C2398.22 664.32 2392.03 664.32 2385.83 664.32C2383.08 664.32 2380.33 664.32 2377.57 664.32C2374.82 664.32 2372.07 664.32 2369.32 664.32L2348.67 663.288ZM2348.67 361.848V512.568H2371.38C2372.07 513.256 2372.76 513.6 2373.44 513.6C2374.82 513.6 2376.2 513.6 2377.57 513.6C2403.04 512.912 2426.43 508.094 2447.77 499.148C2469.79 490.201 2480.8 469.898 2480.8 438.24C2480.8 406.582 2470.48 386.28 2449.83 377.333C2429.19 368.386 2406.82 363.568 2382.73 362.88C2379.29 362.88 2375.85 362.88 2372.41 362.88C2369.66 362.88 2366.56 362.88 2363.12 362.88L2348.67 361.848Z" fill="#333333"/>
<path d="M3373.46 732.454V752.068H2978.1C2978.1 790.608 2988.08 820.202 3008.04 840.849C3027.99 860.807 3057.24 870.786 3095.78 870.786C3115.73 870.786 3132.94 867.001 3147.39 859.43C3162.53 851.86 3175.26 839.472 3185.58 822.267L3366.23 821.234C3351.09 884.55 3317.37 930.661 3265.07 959.566C3213.45 988.472 3157.37 1002.92 3096.81 1002.92C3009.41 1002.92 2936.46 979.181 2877.97 931.693C2819.48 883.518 2790.23 813.664 2790.23 722.131C2790.23 634.039 2817.41 564.873 2871.78 514.633C2926.83 464.392 2997.37 439.272 3083.39 439.272C3175.61 439.272 3246.83 465.769 3297.07 518.762C3347.99 571.755 3373.46 643.329 3373.46 733.486V732.454ZM2981.2 643.674H3199C3194.19 618.898 3181.45 598.939 3160.81 583.799C3140.85 568.658 3118.14 561.087 3092.68 561.087C3065.15 561.087 3041.07 568.314 3020.42 582.766C2999.78 596.531 2986.7 617.177 2981.2 644.706V643.674Z" fill="#333333"/>
<path d="M4027.24 455.79V985.375H3839.37V926.532H3837.3C3822.16 951.308 3801.52 969.89 3775.37 982.278C3749.22 993.977 3722.03 1000.52 3693.82 1001.89C3691.07 1002.58 3688.31 1002.92 3685.56 1002.92C3682.81 1002.92 3680.06 1002.92 3677.3 1002.92C3598.85 1002.92 3534.51 975.051 3484.27 919.306C3434.72 862.872 3409.95 796.802 3409.95 721.098C3409.95 645.394 3434.38 579.669 3483.24 523.923C3532.79 467.489 3596.79 439.272 3675.24 439.272C3678.68 439.272 3682.12 439.272 3685.56 439.272C3689 439.272 3692.44 439.617 3695.88 440.305C3722.72 442.369 3748.87 449.252 3774.34 460.951C3800.49 471.963 3822.16 487.792 3839.37 508.439V455.79H4027.24ZM3724.79 601.348C3686.94 602.036 3657.35 614.424 3636.01 638.512C3614.68 661.911 3604.01 689.784 3604.01 722.131C3604.01 755.853 3614.68 784.07 3636.01 806.782C3657.35 829.493 3686.94 840.849 3724.79 840.849C3763.32 840.849 3792.92 829.493 3813.56 806.782C3834.89 784.07 3845.56 755.853 3845.56 722.131C3845.56 689.784 3834.89 661.911 3813.56 638.512C3792.92 614.424 3763.32 602.38 3724.79 602.38V601.348Z" fill="#333333"/>
<path d="M4522.35 469.21V628.189C4508.59 618.554 4493.45 610.295 4476.93 603.413C4460.42 595.842 4443.21 592.057 4425.32 592.057C4389.54 592.057 4358.91 604.445 4333.45 629.221C4308.68 653.997 4296.29 684.623 4296.29 721.098C4296.29 758.95 4308.68 790.264 4333.45 815.04C4358.22 839.128 4389.88 851.172 4428.42 851.172C4431.86 851.172 4435.3 851.172 4438.74 851.172C4442.87 850.484 4446.65 849.795 4450.1 849.107C4463.17 847.042 4475.9 843.257 4488.29 837.752C4501.36 831.558 4512.72 823.987 4522.35 815.04V972.987C4501.71 983.31 4480.03 990.88 4457.32 995.698C4435.3 1000.52 4412.93 1002.92 4390.22 1002.92C4311.77 1002.92 4243.99 977.116 4186.87 925.499C4130.44 873.195 4102.22 807.126 4102.22 727.292C4102.22 641.953 4130.78 572.787 4187.9 519.794C4245.02 466.113 4315.21 439.272 4398.48 439.272C4420.5 439.272 4441.84 442.025 4462.48 447.531C4483.82 452.349 4503.77 459.919 4522.35 470.242V469.21Z" fill="#333333"/>
<path d="M4628.06 128.541H4815.93V522.891H4817.99C4840.01 494.674 4864.44 473.683 4891.28 459.919C4918.81 446.155 4950.81 439.272 4987.28 439.272C5054.72 439.272 5104.62 459.575 5136.96 500.18C5169.99 540.785 5186.51 594.81 5186.51 662.256V985.375H4998.64V713.872C4998.64 713.872 4998.64 713.528 4998.64 712.84C4998.64 711.463 4998.64 710.087 4998.64 708.71C4998.64 679.117 4993.48 651.932 4983.15 627.156C4973.52 601.692 4950.47 588.96 4913.99 588.96C4878.21 588.96 4853.09 601.692 4838.64 627.156C4824.19 651.932 4816.61 679.117 4815.93 708.71C4815.93 710.087 4815.93 711.463 4815.93 712.84C4815.93 713.528 4815.93 714.216 4815.93 714.904V985.375H4628.06V128.541Z" fill="#333333"/>
<path d="M5496.45 507.406H5788.59V206.998H5990.92V985.375H5788.59V666.385H5496.45V985.375H5294.13V206.998H5496.45V507.406Z" fill="#333333"/>
<path d="M6686.41 455.79V985.375H6498.54V926.532H6496.47C6481.33 951.308 6460.68 969.89 6434.53 982.278C6408.38 993.977 6381.2 1000.52 6352.98 1001.89C6350.23 1002.58 6347.48 1002.92 6344.72 1002.92C6341.97 1002.92 6339.22 1002.92 6336.47 1002.92C6258.01 1002.92 6193.66 975.051 6143.43 919.306C6093.88 862.872 6069.1 796.802 6069.1 721.098C6069.1 645.394 6093.53 579.669 6142.39 523.923C6191.94 467.489 6255.95 439.272 6334.4 439.272C6337.84 439.272 6341.28 439.272 6344.72 439.272C6348.16 439.272 6351.61 439.617 6355.05 440.305C6381.89 442.369 6408.04 449.252 6433.5 460.951C6459.65 471.963 6481.33 487.792 6498.54 508.439V455.79H6686.41ZM6383.95 601.348C6346.1 602.036 6316.51 614.424 6295.17 638.512C6273.84 661.911 6263.17 689.784 6263.17 722.131C6263.17 755.853 6273.84 784.07 6295.17 806.782C6316.51 829.493 6346.1 840.849 6383.95 840.849C6422.49 840.849 6452.08 829.493 6472.73 806.782C6494.06 784.07 6504.73 755.853 6504.73 722.131C6504.73 689.784 6494.06 661.911 6472.73 638.512C6452.08 614.424 6422.49 602.38 6383.95 602.38V601.348Z" fill="#333333"/>
<path d="M7181.54 469.21V628.189C7167.78 618.554 7152.64 610.295 7136.12 603.413C7119.6 595.842 7102.4 592.057 7084.51 592.057C7048.72 592.057 7018.09 604.445 6992.63 629.221C6967.86 653.997 6955.47 684.623 6955.47 721.098C6955.47 758.95 6967.86 790.264 6992.63 815.04C7017.41 839.128 7049.06 851.172 7087.6 851.172C7091.04 851.172 7094.48 851.172 7097.92 851.172C7102.05 850.484 7105.84 849.795 7109.28 849.107C7122.36 847.042 7135.09 843.257 7147.48 837.752C7160.55 831.558 7171.91 823.987 7181.54 815.04V972.987C7160.89 983.31 7139.22 990.88 7116.51 995.698C7094.48 1000.52 7072.12 1002.92 7049.41 1002.92C6970.95 1002.92 6903.17 977.116 6846.05 925.5C6789.61 873.195 6761.4 807.126 6761.4 727.292C6761.4 641.953 6789.96 572.787 6847.08 519.794C6904.2 466.113 6974.39 439.272 7057.67 439.272C7079.69 439.272 7101.02 442.025 7121.67 447.531C7143 452.349 7162.96 459.919 7181.54 470.242V469.21Z" fill="#333333"/>
<path d="M7475.12 128.541V646.771L7670.23 455.79H7927.27L7661.97 700.452L7943.78 985.375H7680.55L7475.12 769.618V985.375H7287.25V128.541H7475.12Z" fill="#333333"/>
<path d="M8399.52 472.307L8336.54 592.057C8328.29 587.928 8319 584.143 8308.67 580.702C8299.04 577.261 8289.06 574.508 8278.74 572.443C8271.17 571.066 8263.6 570.034 8256.03 569.346C8249.15 567.969 8242.26 567.281 8235.38 567.281C8231.94 567.281 8228.15 567.625 8224.03 568.314C8220.58 568.314 8217.14 569.002 8213.7 570.378C8204.07 572.443 8195.47 576.228 8187.9 581.734C8180.33 586.551 8176.54 593.778 8176.54 603.413C8176.54 615.113 8181.36 624.059 8190.99 630.253C8201.32 635.759 8212.67 639.888 8225.06 642.641C8231.94 644.706 8238.48 646.427 8244.67 647.803C8250.87 648.491 8256.37 649.179 8261.19 649.868C8305.23 658.815 8341.71 674.988 8370.61 698.387C8400.2 721.787 8415 757.918 8415 806.782C8415 874.227 8390.22 923.435 8340.67 954.405C8291.12 984.686 8236.41 1000.86 8176.54 1002.92C8174.48 1002.92 8172.41 1002.92 8170.35 1002.92C8168.97 1002.92 8167.25 1002.92 8165.19 1002.92C8127.33 1002.92 8090.17 997.763 8053.7 987.439C8017.91 977.116 7983.85 962.319 7951.5 943.049L8019.63 810.911C8031.33 819.858 8044.75 828.116 8059.89 835.687C8075.03 842.569 8090.52 848.763 8106.34 854.269C8117.36 857.71 8128.02 860.463 8138.35 862.527C8148.67 864.592 8158.65 865.624 8168.28 865.624C8171.03 865.624 8173.79 865.624 8176.54 865.624C8179.98 864.936 8183.42 864.248 8186.86 863.56C8197.19 861.495 8206.48 857.366 8214.74 851.172C8222.99 844.978 8227.12 836.375 8227.12 825.364C8227.12 810.223 8219.9 799.555 8205.44 793.361C8190.99 786.479 8173.79 780.973 8153.83 776.844C8146.26 775.468 8138.69 774.091 8131.12 772.715C8124.24 770.65 8117.01 768.585 8109.44 766.521C8079.85 758.95 8052.67 745.874 8027.89 727.292C8003.8 708.022 7991.76 674.644 7991.76 627.156C7991.76 563.152 8015.5 516.009 8062.99 485.727C8110.47 455.446 8162.43 439.961 8218.86 439.272C8220.24 439.272 8221.27 439.272 8221.96 439.272C8223.34 439.272 8224.37 439.272 8225.06 439.272C8255.34 439.272 8284.93 442.025 8313.83 447.531C8343.43 452.349 8371.99 460.951 8399.52 473.339V472.307Z" fill="#333333"/>
<path d="M0 496.411C0 492.547 4.19613 490.143 7.52935 492.098L879.327 1003.36C880.889 1004.27 882.824 1004.27 884.385 1003.36L1756.18 492.098C1759.52 490.143 1763.71 492.547 1763.71 496.411V1001.95C1763.71 1003.74 1762.76 1005.39 1761.21 1006.28L884.353 1511.59C882.807 1512.48 880.905 1512.48 879.36 1511.59L2.50351 1006.28C0.954525 1005.39 0 1003.74 0 1001.95V496.411Z" fill="#333333"/>
<path d="M1011.89 74.7336C1011.89 116.008 947.988 149.467 869.154 149.467C790.32 149.467 726.413 116.008 726.413 74.7336C726.413 33.4594 790.32 0 869.154 0C947.988 0 1011.89 33.4594 1011.89 74.7336Z" fill="#333333"/>
<path d="M1011.89 582.922C1011.89 624.196 947.988 657.655 869.154 657.655C790.32 657.655 726.413 624.196 726.413 582.922C726.413 541.647 790.32 508.188 869.154 508.188C947.988 508.188 1011.89 541.647 1011.89 582.922Z" fill="#333333"/>
<path d="M1454.31 328.829C1454.31 370.104 1390.41 403.563 1311.57 403.563C1232.74 403.563 1168.83 370.104 1168.83 328.829C1168.83 287.555 1232.74 254.096 1311.57 254.096C1390.41 254.096 1454.31 287.555 1454.31 328.829Z" fill="#333333"/>
<path d="M575.446 328.829C575.446 370.104 511.539 403.563 432.705 403.563C353.871 403.563 289.964 370.104 289.964 328.829C289.964 287.555 353.871 254.096 432.705 254.096C511.539 254.096 575.446 287.555 575.446 328.829Z" fill="#333333"/>
<path d="M699.506 116.889C699.506 111.803 706.778 109.611 710.033 113.518C777.947 195.031 961.492 195.638 1026.24 115.336C1029.51 111.282 1037.3 113.485 1037.3 118.693V272.221C1037.3 273.416 1036.88 274.572 1036.09 275.469C959.837 362.004 777.075 359.106 700.774 275.481C699.949 274.577 699.506 273.396 699.506 272.172V116.889Z" fill="#333333"/>
<path d="M699.506 628.066C699.506 622.98 706.778 620.788 710.033 624.695C777.947 706.208 961.492 706.815 1026.24 626.513C1029.51 622.459 1037.3 624.662 1037.3 629.87V783.398C1037.3 784.593 1036.88 785.749 1036.09 786.646C959.837 873.181 777.075 870.283 700.774 786.658C699.949 785.754 699.506 784.573 699.506 783.349V628.066Z" fill="#333333"/>
<path d="M1143.42 372.478C1143.42 367.393 1150.69 365.2 1153.95 369.107C1221.86 450.621 1405.41 451.227 1470.16 370.925C1473.43 366.871 1481.22 369.075 1481.22 374.283V527.81C1481.22 529.005 1480.79 530.162 1480 531.058C1403.75 617.594 1220.99 614.695 1144.69 531.07C1143.87 530.166 1143.42 528.986 1143.42 527.761V372.478Z" fill="#333333"/>
<path d="M264.557 372.478C264.557 367.393 271.829 365.2 275.085 369.107C342.998 450.621 526.543 451.227 591.294 370.925C594.563 366.871 602.353 369.075 602.353 374.283V527.81C602.353 529.005 601.929 530.162 601.139 531.058C524.888 617.594 342.126 614.695 265.825 531.07C265 530.166 264.557 528.986 264.557 527.761V372.478Z" fill="#333333"/>
</svg>
