<svg version="1.1" id="Layer_1" xmlns="http://www.w3.org/2000/svg" xmlns:xlink="http://www.w3.org/1999/xlink" x="0px" y="0px"
	 viewBox="0 0 1366 1366" style="enable-background:new 0 0 1366 1366;" xml:space="preserve">
<g>
	<g>
		<g>
			<path d="M446.39,765.2c-0.05,18.95,5.17,33.7,16.73,42.15c11.56,8.45,27.33,13.76,49.43,13.82l-0.11,40
				c-35.79-0.1-64.19-8.59-84.14-25.49c-19.96-15.84-29.37-39.03-29.29-68.5l0.23-86.31c0.05-20-6.22-33.7-17.78-42.15
				c-11.56-8.45-29.44-12.71-52.6-12.77l0.11-40c25.26,0.07,43.17-5.15,53.72-13.54c11.6-8.39,16.9-22.06,16.95-41.01l0.24-87.36
				c0.08-29.47,10.67-52.6,30.71-68.34c21.1-16.78,48.48-24.08,83.22-23.98l-0.11,40c-44.21,0.93-65.31,19.82-65.41,56.66
				l-0.23,84.21c-0.11,41.05-21.23,65.2-64.4,72.45l-0.01,3.16c42.08,7.48,64.12,31.75,64.01,72.8l-0.23,84.21L446.39,765.2z"/>
		</g>
	</g>
	<g>
		<g>
			<path d="M922.59,605.44c-42.08-7.48-64.12-31.75-64.01-72.8l0.23-84.21c0.1-36.84-21.95-55.85-65.11-57.02l0.11-40
				c34.74,0.09,63.13,8.59,83.09,25.49s30.42,39.03,30.34,68.5L907,532.77c-0.05,18.95,5.18,31.59,16.73,41.1
				c11.56,8.45,29.44,13.76,53.64,13.83l-0.11,40c-23.16-0.06-41.06,4.1-52.66,12.49c-11.6,8.39-17.96,23.11-18.01,42.06
				l-0.23,86.31c-0.08,29.47-9.61,51.55-29.66,68.34c-20.04,15.73-47.43,24.08-83.22,25.04l0.11-40
				c21.05,0.06,36.85-5.16,48.46-13.55c11.6-8.39,16.9-23.11,16.96-42.06l0.23-85.26c0.06-22.1,5.37-37.88,15.92-49.43
				s26.37-18.88,48.48-23.03l0.01-3.16L922.59,605.44z"/>
		</g>
	</g>
	<g>
		<path d="M940.77,500.23l0.09-34.74c0,0,6.45-49.45,81.18-49.25c58.94,0.16,112.46,62.41,112.3,122.4
			c-0.48,178.94-194.26,216.31-194.26,216.31l0.07-26.31c0,0,140.12-46.99,140.48-180.67c0.14-50.52-38.72-83.26-74.51-83.36
			C966.12,465.56,940.77,500.23,940.77,500.23z"/>
	</g>
	<g>
		<path d="M494.28,569.55c0,0-16.65-71.62,118.12-84.94l-0.1,36.84c0,0-87.36-0.24-91.7,47.12L494.28,569.55z"/>
	</g>
	<g>
		<circle cx="572.09" cy="600.28" r="26.31"/>
	</g>
	<g>
		<circle cx="747.87" cy="600.76" r="26.31"/>
	</g>
	<g>
		<path d="M575.94,733.97c0,0,200.92,46.86,167.55-71.12l42.1,0.11c0,0,55.33,167.51-209.75,103.64L575.94,733.97z"/>
	</g>
	<g>
		<path d="M606.68,655.11l-0.06,22.1c0,0,23.12,14.8,55.74,16.99c6.32,0.02,24.22-2.04,25.3-14.67l0.39-145.26c0,0-1-20,33.74-19.91
			c24.21,0.07,55.74,16.99,69.39,28.61l0.08-30.53c0,0-40.96-34.85-92.53-34.99c-38.95-0.11-43.19,12.51-45.34,28.3L653,651.03
			C653.01,647.87,639.28,663.62,606.68,655.11z"/>
	</g>
	<g>
		<path d="M317.63,891.16l0.07-25.26c0,0,170.43,32.04,337.79,32.49c155.78,0.42,341.12-29.6,341.12-29.6l-0.07,25.26
			c0,0-150.68,58.54-192.79,60.53l-7.44,25.24l-285.25-0.77l-8.35-27.39C501.67,950.61,418.56,935.64,317.63,891.16z"/>
	</g>
	<g>
		<path d="M573.7,392.92l-0.05,16.84c22.11-3.1,83.25-34.51,83.35-72.4c0.07-24.21-20.9-54.79-65.11-54.91
			c-36.84-0.1-66.41,36.66-53.87,68.27l18.95,0.05c-2.06-16.85,10.62-34.71,30.62-34.65c22.1,0.06,30.48,17.98,30.44,31.66
			C617.95,377.26,574.76,392.93,573.7,392.92z"/>
	</g>
	<g>
		<path d="M630.54,395.18c0,0,77.97-30.31,78.08-69.26c0.16-58.94-137.75-50.9-137.55-126.68c0.12-45.26,32.8-64.12,59.12-64.05
			c27.37,0.07,47.31,21.18,47.26,40.13c-0.02,8.42-3.21,17.89-8.48,22.08l-18.95-0.05c0,0,5.27-4.2,5.31-15.77
			c0.02-8.42-8.36-21.07-22.05-21.11c-10.53-0.03-22.12,7.31-22.17,25.2c-0.13,49.47,160.93,44.64,160.69,132.01
			c-0.16,57.89-97.07,87.1-142.35,91.19l0.04-13.68L630.54,395.18z"/>
	</g>
</g>
<g>
	<g>
		<path d="M86.8,1150.96c0-21.5,17.9-37.59,43.17-37.59c15.13,0,26.45,5.88,31.85,16.33l-17.37,7.93c-3.16-6-8.55-8.77-15.79-8.77
			c-12.11,0-21.06,8.65-21.06,21.14c0,8.77,5.92,14.41,16.45,14.41c7.11,0,13.16-2.64,17.37-8.65l15.13,8.65
			c-6.84,9.73-19.21,15.49-33.69,15.49C100.88,1179.9,86.8,1168.37,86.8,1150.96z"/>
	</g>
	<g>
		<path d="M157.08,1150.96c0-21.5,17.9-37.59,42.77-37.59c21.72,0,35.67,11.41,35.67,28.94c0,21.5-17.77,37.59-42.77,37.59
			C171.17,1179.9,157.08,1168.37,157.08,1150.96z M214.73,1143.15c0-8.77-5.79-14.29-16.06-14.29c-12.11,0-20.79,8.65-20.79,21.26
			c0,8.77,5.92,14.29,16.19,14.29C206.04,1164.41,214.73,1155.76,214.73,1143.15z"/>
	</g>
	<g>
		<path d="M326.73,1089.83l-19.48,89.1h-19.48l1.45-6.48c-5.66,4.68-12.9,7.45-21.72,7.45c-16.45,0-30.53-10.57-30.53-28.94
			c0-21.74,17.24-37.59,39.09-37.59c10.27,0,18.29,3.12,22.9,9.49l7.24-33.02H326.73z M294.62,1143.15
			c0-8.77-5.92-14.29-16.19-14.29c-12.11,0-20.79,8.65-20.79,21.26c0,8.77,5.92,14.29,16.19,14.29
			C285.93,1164.41,294.62,1155.76,294.62,1143.15z"/>
	</g>
	<g>
		<path d="M395.43,1151.68h-54.22c0.66,8.77,6.58,13.21,18.29,13.21c7.24,0,14.08-2.16,18.95-6l8.55,12.37
			c-8.16,6-18.82,8.65-29.61,8.65c-22.11,0-36.19-11.41-36.19-28.94c0-21.62,17.11-37.59,41.72-37.59
			c20.66,0,33.69,11.17,33.69,28.46C396.61,1145.31,396.09,1148.68,395.43,1151.68z M342.65,1140.75h35.14
			c0-8.53-6.32-13.33-15.79-13.33C352.13,1127.42,345.42,1132.7,342.65,1140.75z"/>
	</g>
	<g>
		<path d="M481.77,1114.33l-14.08,64.61h-19.48l1.32-6.36c-5.66,4.68-13.03,7.33-21.72,7.33c-16.45,0-30.53-10.57-30.53-28.94
			c0-21.74,17.24-37.59,39.09-37.59c10.27,0,18.42,3,23.03,9.73l1.84-8.77H481.77z M454.92,1143.15c0-8.77-5.92-14.29-16.19-14.29
			c-12.11,0-20.79,8.65-20.79,21.26c0,8.77,5.92,14.29,16.19,14.29C446.23,1164.41,454.92,1155.76,454.92,1143.15z"/>
	</g>
	<g>
		<path d="M561.13,1135.35c0,2.4-0.26,5.04-0.92,7.81l-7.9,35.79h-20.53l7.63-34.58c0.39-1.56,0.53-3.12,0.53-4.44
			c0-6.6-3.95-10.33-12.11-10.33c-10.4,0-17.64,5.28-20.14,16.57l-7.11,32.78h-20.53l14.08-64.61h19.48l-1.58,6.96
			c6.45-5.4,14.61-7.93,23.29-7.93C550.86,1113.37,561.13,1121.06,561.13,1135.35z"/>
	</g>
	<g>
		<path d="M656.68,1089.83l-19.48,89.1h-19.48l1.45-6.48c-5.66,4.68-12.9,7.45-21.72,7.45c-16.45,0-30.53-10.57-30.53-28.94
			c0-21.74,17.24-37.59,39.09-37.59c10.27,0,18.29,3.12,22.9,9.49l7.24-33.02H656.68z M624.56,1143.15
			c0-8.77-5.92-14.29-16.19-14.29c-12.11,0-20.79,8.65-20.79,21.26c0,8.77,5.92,14.29,16.19,14.29
			C615.88,1164.41,624.56,1155.76,624.56,1143.15z"/>
	</g>
	<g>
		<path d="M651.02,1150.96c0-21.5,17.9-37.59,43.17-37.59c15.13,0,26.45,5.88,31.85,16.33l-17.37,7.93c-3.16-6-8.55-8.77-15.79-8.77
			c-12.11,0-21.06,8.65-21.06,21.14c0,8.77,5.92,14.41,16.45,14.41c7.11,0,13.16-2.64,17.37-8.65l15.13,8.65
			c-6.84,9.73-19.21,15.49-33.69,15.49C665.1,1179.9,651.02,1168.37,651.02,1150.96z"/>
	</g>
	<g>
		<path d="M721.3,1150.96c0-21.5,17.9-37.59,42.77-37.59c21.71,0,35.67,11.41,35.67,28.94c0,21.5-17.77,37.59-42.77,37.59
			C735.38,1179.9,721.3,1168.37,721.3,1150.96z M778.95,1143.15c0-8.77-5.79-14.29-16.06-14.29c-12.11,0-20.79,8.65-20.79,21.26
			c0,8.77,5.92,14.29,16.19,14.29C770.26,1164.41,778.95,1155.76,778.95,1143.15z"/>
	</g>
	<g>
		<path d="M836.33,1113.37l-0.53,2.4h18.03l-3.16,14.41h-17.5l-10.66,48.75h-20.53l10.66-48.75h-11.05l3.16-14.41h11.05l0.79-3.72
			c3.16-14.05,13.42-23.18,30.8-23.18c6.32,0,12.24,1.32,16.32,3.6l-8.03,13.45c-2.24-1.56-5-2.28-8.16-2.28
			C841.2,1103.64,837.78,1106.65,836.33,1113.37z"/>
	</g>
	<g>
		<path d="M880.68,1113.37l-0.53,2.4h18.03l-3.16,14.41h-17.5l-10.66,48.75h-20.53l10.66-48.75h-11.05l3.16-14.41h11.05l0.79-3.72
			c3.16-14.05,13.42-23.18,30.8-23.18c6.32,0,12.24,1.32,16.32,3.6l-8.03,13.45c-2.24-1.56-5-2.28-8.16-2.28
			C885.55,1103.64,882.13,1106.65,880.68,1113.37z"/>
	</g>
	<g>
		<path d="M962.94,1151.68h-54.22c0.66,8.77,6.58,13.21,18.29,13.21c7.24,0,14.08-2.16,18.95-6l8.55,12.37
			c-8.16,6-18.82,8.65-29.61,8.65c-22.11,0-36.19-11.41-36.19-28.94c0-21.62,17.11-37.59,41.72-37.59
			c20.66,0,33.69,11.17,33.69,28.46C964.12,1145.31,963.6,1148.68,962.94,1151.68z M910.16,1140.75h35.14
			c0-8.53-6.32-13.33-15.79-13.33C919.64,1127.42,912.93,1132.7,910.16,1140.75z"/>
	</g>
	<g>
		<path d="M1039.01,1151.68h-54.22c0.66,8.77,6.58,13.21,18.29,13.21c7.24,0,14.08-2.16,18.95-6l8.55,12.37
			c-8.16,6-18.82,8.65-29.61,8.65c-22.11,0-36.19-11.41-36.19-28.94c0-21.62,17.11-37.59,41.72-37.59
			c20.66,0,33.69,11.17,33.69,28.46C1040.19,1145.31,1039.67,1148.68,1039.01,1151.68z M986.23,1140.75h35.14
			c0-8.53-6.32-13.33-15.79-13.33C995.71,1127.42,989,1132.7,986.23,1140.75z"/>
	</g>
	<g>
		<path d="M1036.64,1169.09c0-7.57,6.05-12.49,13.69-12.49c6.98,0,11.98,4.44,11.98,10.81c0,7.45-6.32,12.49-13.56,12.49
			C1041.77,1179.9,1036.64,1175.33,1036.64,1169.09z"/>
	</g>
	<g>
		<path d="M1157.85,1089.83l-19.48,89.1h-19.48l1.45-6.48c-5.66,4.68-12.9,7.45-21.71,7.45c-16.45,0-30.53-10.57-30.53-28.94
			c0-21.74,17.24-37.59,39.09-37.59c10.27,0,18.29,3.12,22.9,9.49l7.24-33.02H1157.85z M1125.74,1143.15
			c0-8.77-5.92-14.29-16.19-14.29c-12.11,0-20.79,8.65-20.79,21.26c0,8.77,5.92,14.29,16.19,14.29
			C1117.06,1164.41,1125.74,1155.76,1125.74,1143.15z"/>
	</g>
	<g>
		<path d="M1226.56,1151.68h-54.22c0.66,8.77,6.58,13.21,18.29,13.21c7.24,0,14.08-2.16,18.95-6l8.55,12.37
			c-8.16,6-18.82,8.65-29.61,8.65c-22.11,0-36.19-11.41-36.19-28.94c0-21.62,17.11-37.59,41.72-37.59
			c20.66,0,33.69,11.17,33.69,28.46C1227.74,1145.31,1227.21,1148.68,1226.56,1151.68z M1173.78,1140.75h35.14
			c0-8.53-6.32-13.33-15.79-13.33C1183.26,1127.42,1176.54,1132.7,1173.78,1140.75z"/>
	</g>
	<g>
		<path d="M1310,1114.33l-43.96,64.61h-21.19l-15.66-64.61h20.27l10.27,44.07l29.74-44.07H1310z"/>
	</g>
</g>
</svg>
