<svg width="32" height="32" viewBox="0 0 32 32" fill="none" xmlns="http://www.w3.org/2000/svg">
<path d="M15 15L15.0547 14.9733C15.2256 14.8879 15.4175 14.8533 15.6076 14.8735C15.7976 14.8938 15.9779 14.9681 16.127 15.0876C16.2761 15.2071 16.3879 15.3669 16.449 15.548C16.5102 15.7291 16.5181 15.9239 16.472 16.1093L15.528 19.8907C15.4815 20.0762 15.4893 20.2712 15.5503 20.4525C15.6113 20.6338 15.723 20.7938 15.8722 20.9136C16.0214 21.0333 16.2018 21.1077 16.392 21.128C16.5822 21.1483 16.7742 21.1136 16.9453 21.028L17 21M28 16C28 17.5759 27.6896 19.1363 27.0866 20.5922C26.4835 22.0481 25.5996 23.371 24.4853 24.4853C23.371 25.5996 22.0481 26.4835 20.5922 27.0866C19.1363 27.6896 17.5759 28 16 28C14.4241 28 12.8637 27.6896 11.4078 27.0866C9.95189 26.4835 8.62902 25.5996 7.51472 24.4853C6.40042 23.371 5.5165 22.0481 4.91345 20.5922C4.31039 19.1363 4 17.5759 4 16C4 12.8174 5.26428 9.76516 7.51472 7.51472C9.76516 5.26428 12.8174 4 16 4C19.1826 4 22.2348 5.26428 24.4853 7.51472C26.7357 9.76516 28 12.8174 28 16ZM16 11H16.0107V11.0107H16V11Z" stroke="black" stroke-width="2" stroke-linecap="round" stroke-linejoin="round"/>
</svg>
