<svg width="36" height="36" viewBox="0 0 36 36" fill="none" xmlns="http://www.w3.org/2000/svg">
<g clip-path="url(#clip0_247_1466)">
<path d="M33.71 17.2908L18.71 2.29079C18.5227 2.10454 18.2692 2 18.005 2C17.7408 2 17.4874 2.10454 17.3 2.29079L2.30003 17.2908C2.1362 17.4821 2.05059 17.7282 2.06032 17.9798C2.07004 18.2315 2.17437 18.4703 2.35246 18.6484C2.53056 18.8265 2.7693 18.9308 3.02097 18.9405C3.27265 18.9502 3.51873 18.8646 3.71003 18.7008L18 4.41079L32.29 18.7108C32.4813 18.8746 32.7274 18.9602 32.9791 18.9505C33.2308 18.9408 33.4695 18.8365 33.6476 18.6584C33.8257 18.4803 33.93 18.2415 33.9397 17.9898C33.9495 17.7382 33.8639 17.4921 33.7 17.3008L33.71 17.2908Z" fill="black"/>
<path d="M28 31.9998H23V21.9998H13V31.9998H8V17.9998L6 19.9998V31.9998C6 32.5302 6.21071 33.0389 6.58579 33.414C6.96086 33.7891 7.46957 33.9998 8 33.9998H15V23.9998H21V33.9998H28C28.5304 33.9998 29.0391 33.7891 29.4142 33.414C29.7893 33.0389 30 32.5302 30 31.9998V19.7598L28 17.7598V31.9998Z" fill="black"/>
</g>
<defs>
<clipPath id="clip0_247_1466">
<rect width="36" height="36" fill="white"/>
</clipPath>
</defs>
</svg>
