<svg width="43" height="45" viewBox="0 0 43 45" fill="none" xmlns="http://www.w3.org/2000/svg">
<g filter="url(#filter0_d_365_2266)">
<g clip-path="url(#clip0_365_2266)">
<path d="M35.0922 21.4083L22.5922 8.90834C22.436 8.75313 22.2248 8.66602 22.0047 8.66602C21.7845 8.66602 21.5733 8.75313 21.4172 8.90834L8.91718 21.4083C8.78066 21.5678 8.70932 21.7728 8.71742 21.9826C8.72552 22.1923 8.81246 22.3912 8.96088 22.5396C9.10929 22.6881 9.30824 22.775 9.51797 22.7831C9.7277 22.7912 9.93276 22.7199 10.0922 22.5833L22.0005 10.675L33.9088 22.5917C34.0683 22.7282 34.2733 22.7995 34.4831 22.7914C34.6928 22.7833 34.8917 22.6964 35.0401 22.548C35.1886 22.3996 35.2755 22.2006 35.2836 21.9909C35.2917 21.7812 35.2204 21.5761 35.0838 21.4167L35.0922 21.4083Z" fill="black"/>
<path d="M30.3333 33.6674H26.1667V25.3341H17.8333V33.6674H13.6667V22.0008L12 23.6674V33.6674C12 34.1095 12.1756 34.5334 12.4882 34.846C12.8007 35.1585 13.2246 35.3341 13.6667 35.3341H19.5V27.0008H24.5V35.3341H30.3333C30.7754 35.3341 31.1993 35.1585 31.5118 34.846C31.8244 34.5334 32 34.1095 32 33.6674V23.4674L30.3333 21.8008V33.6674Z" fill="black"/>
</g>
</g>
<defs>
<filter id="filter0_d_365_2266" x="-4" y="0" width="51" height="51" filterUnits="userSpaceOnUse" color-interpolation-filters="sRGB">
<feFlood flood-opacity="0" result="BackgroundImageFix"/>
<feColorMatrix in="SourceAlpha" type="matrix" values="0 0 0 0 0 0 0 0 0 0 0 0 0 0 0 0 0 0 127 0" result="hardAlpha"/>
<feOffset dy="4"/>
<feGaussianBlur stdDeviation="2"/>
<feComposite in2="hardAlpha" operator="out"/>
<feColorMatrix type="matrix" values="0 0 0 0 0 0 0 0 0 0 0 0 0 0 0 0 0 0 0.25 0"/>
<feBlend mode="normal" in2="BackgroundImageFix" result="effect1_dropShadow_365_2266"/>
<feBlend mode="normal" in="SourceGraphic" in2="effect1_dropShadow_365_2266" result="shape"/>
</filter>
<clipPath id="clip0_365_2266">
<rect width="30" height="30" fill="white" transform="translate(7 7)"/>
</clipPath>
</defs>
</svg>
