<svg width="36" height="36" viewBox="0 0 36 36" fill="none" xmlns="http://www.w3.org/2000/svg">
<path d="M13.5 30H9C7.4087 30 5.88258 29.3679 4.75736 28.2426C3.63214 27.1174 3 25.5913 3 24V10.5C3 8.9087 3.63214 7.38258 4.75736 6.25736C5.88258 5.13214 7.4087 4.5 9 4.5H25.5C27.0913 4.5 28.6174 5.13214 29.7426 6.25736C30.8679 7.38258 31.5 8.9087 31.5 10.5V15M12 3V6M22.5 3V6M3 12H31.5M27.75 23.4645L25.5 25.7145" stroke="black" stroke-width="2" stroke-linecap="round" stroke-linejoin="round"/>
<path d="M25.5 33C29.6421 33 33 29.6421 33 25.5C33 21.3579 29.6421 18 25.5 18C21.3579 18 18 21.3579 18 25.5C18 29.6421 21.3579 33 25.5 33Z" stroke="black" stroke-width="2" stroke-linecap="round" stroke-linejoin="round"/>
</svg>
