<svg width="36" height="36" viewBox="0 0 36 36" fill="none" xmlns="http://www.w3.org/2000/svg">
<path d="M18.0137 3.65625C15.1768 3.65625 12.4035 4.4975 10.0447 6.07361C7.6859 7.64972 5.84743 9.88991 4.76178 12.5109C3.67614 15.1319 3.39208 18.0159 3.94554 20.7983C4.499 23.5807 5.86511 26.1366 7.87112 28.1426C9.87712 30.1486 12.4329 31.5147 15.2154 32.0681C17.9978 32.6216 20.8818 32.3375 23.5028 31.2519C26.1238 30.1663 28.364 28.3278 29.9401 25.969C31.5162 23.6101 32.3574 20.8369 32.3574 18C32.3537 14.1969 30.8413 10.5507 28.1521 7.86155C25.463 5.17238 21.8167 3.65997 18.0137 3.65625ZM18.0137 30.6562C15.5105 30.6562 13.0636 29.914 10.9822 28.5233C8.90093 27.1326 7.27875 25.156 6.32083 22.8433C5.36291 20.5307 5.11227 17.986 5.60061 15.5309C6.08896 13.0758 7.29435 10.8207 9.06436 9.05068C10.8344 7.28067 13.0895 6.07528 15.5446 5.58694C17.9996 5.09859 20.5444 5.34923 22.857 6.30715C25.1696 7.26507 27.1463 8.88725 28.537 10.9686C29.9277 13.0499 30.6699 15.4968 30.6699 18C30.6662 21.3555 29.3316 24.5725 26.9589 26.9452C24.5862 29.3179 21.3692 30.6525 18.0137 30.6562ZM25.9449 15.6234C25.8401 15.8207 25.6624 15.9693 25.4496 16.0376C25.2369 16.1059 25.006 16.0885 24.8059 15.9891C22.6999 14.9082 20.3668 14.3445 17.9996 14.3445C15.6325 14.3445 13.2993 14.9082 11.1934 15.9891C11.0732 16.0563 10.9373 16.0903 10.7996 16.0875C10.6076 16.0903 10.4204 16.0274 10.2689 15.9094C10.1174 15.7913 10.0108 15.6252 9.9665 15.4383C9.92224 15.2514 9.94305 15.0551 10.0255 14.8816C10.1079 14.7082 10.2471 14.568 10.4199 14.4844C12.7706 13.282 15.3733 12.6554 18.0137 12.6562C20.6457 12.6501 23.2405 13.2771 25.5793 14.4844C25.6783 14.5349 25.7663 14.6046 25.8383 14.6893C25.9103 14.774 25.9649 14.8721 25.9989 14.9779C26.0329 15.0838 26.0456 15.1953 26.0363 15.3061C26.0271 15.4168 25.996 15.5247 25.9449 15.6234ZM23.8637 19.6031C23.8144 19.7033 23.7456 19.7928 23.6615 19.8662C23.5773 19.9396 23.4794 19.9956 23.3735 20.031C23.2675 20.0663 23.1556 20.0802 23.0442 20.0719C22.9328 20.0637 22.8242 20.0334 22.7246 19.9828C21.2622 19.2337 19.6427 18.8431 17.9996 18.8431C16.3565 18.8431 14.737 19.2337 13.2746 19.9828C13.1562 20.0415 13.0269 20.075 12.8949 20.0813C12.7017 20.0874 12.5121 20.027 12.3581 19.9101C12.204 19.7932 12.0948 19.627 12.0487 19.4392C12.0026 19.2514 12.0223 19.0535 12.1047 18.8785C12.1871 18.7036 12.327 18.5622 12.5012 18.4781C14.2037 17.609 16.0881 17.1559 17.9996 17.1559C19.9112 17.1559 21.7955 17.609 23.4981 18.4781C23.6943 18.5803 23.8426 18.7554 23.911 18.9658C23.9794 19.1762 23.9624 19.4051 23.8637 19.6031ZM21.7824 23.5969C21.6776 23.7942 21.4999 23.9427 21.2871 24.011C21.0744 24.0793 20.8435 24.0619 20.6434 23.9625C19.8267 23.5549 18.9264 23.343 18.0137 23.3438C17.0899 23.3393 16.1785 23.5563 15.3559 23.9766C15.2367 24.0312 15.1073 24.0599 14.9762 24.0609C14.8193 24.0604 14.6655 24.0169 14.5316 23.9351C14.3977 23.8533 14.2888 23.7363 14.2168 23.5969C14.1665 23.4983 14.1364 23.3907 14.1283 23.2804C14.1203 23.1701 14.1343 23.0592 14.1697 22.9544C14.2051 22.8496 14.2611 22.7529 14.3343 22.67C14.4076 22.5872 14.4968 22.5198 14.5965 22.4719C15.6531 21.9285 16.8255 21.6486 18.0137 21.6562C19.1908 21.6526 20.352 21.9272 21.4027 22.4578C21.503 22.5071 21.5924 22.5759 21.6658 22.66C21.7393 22.7442 21.7953 22.8421 21.8306 22.948C21.8659 23.054 21.8798 23.1659 21.8716 23.2773C21.8633 23.3887 21.833 23.4973 21.7824 23.5969Z" fill="black"/>
</svg>
