<svg width="36" height="36" viewBox="0 0 36 36" fill="none" xmlns="http://www.w3.org/2000/svg">
<path d="M21 28.5C26.6565 28.5 29.4855 28.5 31.242 26.742C33 24.9855 33 22.1565 33 16.5C33 10.8435 33 8.0145 31.242 6.258C29.4855 4.5 26.6565 4.5 21 4.5H15C9.3435 4.5 6.5145 4.5 4.758 6.258C3 8.0145 3 10.8435 3 16.5C3 22.1565 3 24.9855 4.758 26.742C5.7375 27.723 7.05 28.1565 9 28.347" stroke="black" stroke-width="2" stroke-linecap="round" stroke-linejoin="round"/>
<path d="M14.9999 12.726C15.7499 11.241 16.4999 10.5 17.9999 10.5C19.8689 10.5 20.9999 11.9835 20.9999 13.467C20.9999 14.9505 20.2499 15.0165 17.9999 16.5V18M17.9999 21.75V22.5M20.9999 28.5C19.1459 28.5 17.1029 29.25 15.2384 30.2175C12.2414 31.773 10.7429 32.5515 10.0049 32.055C9.26687 31.56 9.40637 30.0225 9.68687 26.949L9.74987 26.25" stroke="black" stroke-width="2" stroke-linecap="round"/>
</svg>
