<svg width="17" height="17" viewBox="0 0 17 17" fill="none" xmlns="http://www.w3.org/2000/svg">
<g clip-path="url(#clip0_365_2130)">
<path d="M6.37435 14.166H4.24935C3.4979 14.166 2.77723 13.8675 2.24588 13.3362C1.71453 12.8048 1.41602 12.0841 1.41602 11.3327V4.95768C1.41602 4.20624 1.71453 3.48557 2.24588 2.95421C2.77723 2.42286 3.4979 2.12435 4.24935 2.12435H12.041C12.7925 2.12435 13.5131 2.42286 14.0445 2.95421C14.5758 3.48557 14.8743 4.20624 14.8743 4.95768V7.08268M5.66602 1.41602V2.83268M10.6243 1.41602V2.83268M1.41602 5.66602H14.8743M13.1035 11.0798L12.041 12.1423" stroke="black" stroke-linecap="round" stroke-linejoin="round"/>
<path d="M12.0417 15.5833C13.9977 15.5833 15.5833 13.9977 15.5833 12.0417C15.5833 10.0857 13.9977 8.5 12.0417 8.5C10.0857 8.5 8.5 10.0857 8.5 12.0417C8.5 13.9977 10.0857 15.5833 12.0417 15.5833Z" stroke="black" stroke-linecap="round" stroke-linejoin="round"/>
</g>
<defs>
<clipPath id="clip0_365_2130">
<rect width="17" height="17" fill="white"/>
</clipPath>
</defs>
</svg>
