<svg width="63" height="63" viewBox="0 0 63 63" fill="none" xmlns="http://www.w3.org/2000/svg">
<path d="M31.5594 5.79883C26.422 5.79883 21.3999 7.32226 17.1283 10.1765C12.8566 13.0307 9.52728 17.0875 7.56126 21.8339C5.59524 26.5803 5.08084 31.8031 6.08311 36.8418C7.08538 41.8806 9.5593 46.509 13.192 50.1417C16.8248 53.7744 21.4531 56.2484 26.4919 57.2506C31.5306 58.2529 36.7534 57.7385 41.4998 55.7725C46.2462 53.8064 50.303 50.4771 53.1572 46.2055C56.0115 41.9338 57.5349 36.9117 57.5349 31.7743C57.5349 28.3631 56.863 24.9854 55.5576 21.8339C54.2522 18.6824 52.3389 15.8189 49.9269 13.4069C47.5148 10.9948 44.6513 9.08148 41.4998 7.77609C38.3483 6.4707 34.9706 5.79883 31.5594 5.79883V5.79883ZM31.5594 52.5546C27.4495 52.5546 23.4318 51.3359 20.0145 49.0525C16.5972 46.7691 13.9337 43.5237 12.3609 39.7266C10.7881 35.9295 10.3766 31.7512 11.1784 27.7202C11.9802 23.6892 13.9593 19.9865 16.8655 17.0803C19.7717 14.1742 23.4744 12.195 27.5054 11.3932C31.5364 10.5914 35.7146 11.0029 39.5117 12.5757C43.3089 14.1485 46.5543 16.812 48.8377 20.2293C51.1211 23.6466 52.3398 27.6643 52.3398 31.7743C52.3398 37.2856 50.1505 42.5711 46.2534 46.4682C42.3563 50.3653 37.0707 52.5546 31.5594 52.5546V52.5546Z" fill="black"/>
<path d="M41.9506 29.1773H34.158V21.3847C34.158 20.6957 33.8843 20.035 33.3972 19.5479C32.91 19.0608 32.2493 18.7871 31.5604 18.7871C30.8715 18.7871 30.2108 19.0608 29.7237 19.5479C29.2366 20.035 28.9629 20.6957 28.9629 21.3847V31.7748C28.9629 32.4637 29.2366 33.1244 29.7237 33.6116C30.2108 34.0987 30.8715 34.3724 31.5604 34.3724H41.9506C42.6395 34.3724 43.3002 34.0987 43.7874 33.6116C44.2745 33.1244 44.5482 32.4637 44.5482 31.7748C44.5482 31.0859 44.2745 30.4252 43.7874 29.9381C43.3002 29.451 42.6395 29.1773 41.9506 29.1773Z" fill="black"/>
</svg>
