<svg width="36" height="36" viewBox="0 0 36 36" fill="none" xmlns="http://www.w3.org/2000/svg">
<path d="M17.9996 5.39961C17.2835 5.39961 16.5968 5.68407 16.0904 6.19042C15.5841 6.69677 15.2996 7.38352 15.2996 8.09961C15.2996 8.81569 15.5841 9.50245 16.0904 10.0088C16.5968 10.5151 17.2835 10.7996 17.9996 10.7996C18.7157 10.7996 19.4024 10.5151 19.9088 10.0088C20.4151 9.50245 20.6996 8.81569 20.6996 8.09961C20.6996 7.38352 20.4151 6.69677 19.9088 6.19042C19.4024 5.68407 18.7157 5.39961 17.9996 5.39961ZM13.4996 8.09961C13.4996 6.90614 13.9737 5.76154 14.8176 4.91763C15.6615 4.07372 16.8061 3.59961 17.9996 3.59961C19.1931 3.59961 20.3377 4.07372 21.1816 4.91763C22.0255 5.76154 22.4996 6.90614 22.4996 8.09961C22.4996 9.29308 22.0255 10.4377 21.1816 11.2816C20.3377 12.1255 19.1931 12.5996 17.9996 12.5996C16.8061 12.5996 15.6615 12.1255 14.8176 11.2816C13.9737 10.4377 13.4996 9.29308 13.4996 8.09961ZM27.8996 7.19961C27.4222 7.19961 26.9644 7.38925 26.6268 7.72682C26.2893 8.06438 26.0996 8.52222 26.0996 8.99961C26.0996 9.477 26.2893 9.93484 26.6268 10.2724C26.9644 10.61 27.4222 10.7996 27.8996 10.7996C28.377 10.7996 28.8348 10.61 29.1724 10.2724C29.51 9.93484 29.6996 9.477 29.6996 8.99961C29.6996 8.52222 29.51 8.06438 29.1724 7.72682C28.8348 7.38925 28.377 7.19961 27.8996 7.19961ZM24.2996 8.99961C24.2996 8.04483 24.6789 7.12916 25.354 6.45402C26.0292 5.77889 26.9448 5.39961 27.8996 5.39961C28.8544 5.39961 29.7701 5.77889 30.4452 6.45402C31.1203 7.12916 31.4996 8.04483 31.4996 8.99961C31.4996 9.95439 31.1203 10.8701 30.4452 11.5452C29.7701 12.2203 28.8544 12.5996 27.8996 12.5996C26.9448 12.5996 26.0292 12.2203 25.354 11.5452C24.6789 10.8701 24.2996 9.95439 24.2996 8.99961ZM6.29961 8.99961C6.29961 8.52222 6.48925 8.06438 6.82682 7.72682C7.16438 7.38925 7.62222 7.19961 8.09961 7.19961C8.577 7.19961 9.03484 7.38925 9.3724 7.72682C9.70997 8.06438 9.89961 8.52222 9.89961 8.99961C9.89961 9.477 9.70997 9.93484 9.3724 10.2724C9.03484 10.61 8.577 10.7996 8.09961 10.7996C7.62222 10.7996 7.16438 10.61 6.82682 10.2724C6.48925 9.93484 6.29961 9.477 6.29961 8.99961ZM8.09961 5.39961C7.14483 5.39961 6.22916 5.77889 5.55402 6.45402C4.87889 7.12916 4.49961 8.04483 4.49961 8.99961C4.49961 9.95439 4.87889 10.8701 5.55402 11.5452C6.22916 12.2203 7.14483 12.5996 8.09961 12.5996C9.05439 12.5996 9.97006 12.2203 10.6452 11.5452C11.3203 10.8701 11.6996 9.95439 11.6996 8.99961C11.6996 8.04483 11.3203 7.12916 10.6452 6.45402C9.97006 5.77889 9.05439 5.39961 8.09961 5.39961ZM9.17961 26.996C8.69223 27.0204 8.20497 26.9455 7.74745 26.7757C7.28993 26.606 6.87169 26.345 6.51815 26.0086C6.16461 25.6723 5.88315 25.2675 5.69086 24.819C5.49858 24.3705 5.39949 23.8876 5.39961 23.3996V16.6496C5.39961 16.5303 5.44702 16.4158 5.53141 16.3314C5.6158 16.247 5.73026 16.1996 5.84961 16.1996H9.02481C9.09681 15.539 9.33081 14.9252 9.68181 14.3996H5.84961C4.60761 14.3996 3.59961 15.4076 3.59961 16.6496V23.3996C3.59953 24.1702 3.76438 24.9319 4.08309 25.6336C4.40181 26.3352 4.867 26.9604 5.44741 27.4674C6.02782 27.9743 6.71001 28.3511 7.44813 28.5725C8.18625 28.7939 8.96321 28.8548 9.72681 28.751C9.48454 28.1864 9.30117 27.5983 9.17961 26.996ZM26.2724 28.751C27.036 28.8548 27.813 28.7939 28.5511 28.5725C29.2892 28.3511 29.9714 27.9743 30.5518 27.4674C31.1322 26.9604 31.5974 26.3352 31.9161 25.6336C32.2348 24.9319 32.3997 24.1702 32.3996 23.3996V16.6496C32.3996 15.4076 31.3916 14.3996 30.1496 14.3996H26.3174C26.6702 14.9252 26.9024 15.539 26.9744 16.1996H30.1496C30.269 16.1996 30.3834 16.247 30.4678 16.3314C30.5522 16.4158 30.5996 16.5303 30.5996 16.6496V23.3996C30.5997 23.8876 30.5006 24.3705 30.3084 24.819C30.1161 25.2675 29.8346 25.6723 29.4811 26.0086C29.1275 26.345 28.7093 26.606 28.2518 26.7757C27.7942 26.9455 27.307 27.0204 26.8196 26.996C26.698 27.5983 26.5146 28.1864 26.2724 28.751ZM13.0496 14.3996C11.8076 14.3996 10.7996 15.4076 10.7996 16.6496V25.1996C10.7996 27.1092 11.5582 28.9405 12.9084 30.2908C14.2587 31.641 16.0901 32.3996 17.9996 32.3996C19.9092 32.3996 21.7405 31.641 23.0908 30.2908C24.441 28.9405 25.1996 27.1092 25.1996 25.1996V16.6496C25.1996 15.4076 24.1916 14.3996 22.9496 14.3996H13.0496ZM12.5996 16.6496C12.5996 16.5303 12.647 16.4158 12.7314 16.3314C12.8158 16.247 12.9303 16.1996 13.0496 16.1996H22.9496C23.069 16.1996 23.1834 16.247 23.2678 16.3314C23.3522 16.4158 23.3996 16.5303 23.3996 16.6496V25.1996C23.3996 26.6318 22.8307 28.0053 21.818 29.018C20.8053 30.0307 19.4318 30.5996 17.9996 30.5996C16.5674 30.5996 15.1939 30.0307 14.1812 29.018C13.1685 28.0053 12.5996 26.6318 12.5996 25.1996V16.6496Z" fill="black"/>
</svg>
