<svg width="40" height="40" viewBox="0 0 40 40" fill="none" xmlns="http://www.w3.org/2000/svg">
<path d="M18.75 18.75L18.8183 18.7167C19.032 18.6099 19.2719 18.5666 19.5094 18.5919C19.747 18.6172 19.9723 18.7101 20.1587 18.8595C20.3452 19.0089 20.4848 19.2086 20.5613 19.435C20.6377 19.6613 20.6477 19.9048 20.59 20.1367L19.41 24.8633C19.3519 25.0953 19.3616 25.339 19.4378 25.5657C19.5141 25.7923 19.6537 25.9923 19.8402 26.1419C20.0267 26.2916 20.2522 26.3846 20.49 26.41C20.7278 26.4353 20.9678 26.392 21.1817 26.285L21.25 26.25M35 20C35 21.9698 34.612 23.9204 33.8582 25.7403C33.1044 27.5601 31.9995 29.2137 30.6066 30.6066C29.2137 31.9995 27.5601 33.1044 25.7403 33.8582C23.9204 34.612 21.9698 35 20 35C18.0302 35 16.0796 34.612 14.2597 33.8582C12.4399 33.1044 10.7863 31.9995 9.3934 30.6066C8.00052 29.2137 6.89563 27.5601 6.14181 25.7403C5.38799 23.9204 5 21.9698 5 20C5 16.0218 6.58035 12.2064 9.3934 9.3934C12.2064 6.58035 16.0218 5 20 5C23.9782 5 27.7936 6.58035 30.6066 9.3934C33.4196 12.2064 35 16.0218 35 20ZM20 13.75H20.0133V13.7633H20V13.75Z" stroke="black" stroke-width="1.5" stroke-linecap="round" stroke-linejoin="round"/>
</svg>
