<svg width="36" height="36" viewBox="0 0 36 36" fill="none" xmlns="http://www.w3.org/2000/svg">
<path d="M26.4375 2C22.9575 2 19.9065 3.8045 18 6.545C16.0935 3.8045 13.0425 2 9.5625 2C4.6935 2 0 6.131 0 12.125C0 18.5375 4.602 23.8955 8.742 27.4655C11.3425 29.6882 14.1654 31.6365 17.166 33.2795L17.208 33.305L17.22 33.3095L17.2185 33.314C17.463 33.4415 17.7315 33.503 18 33.5015C18.2685 33.503 18.537 33.44 18.7815 33.314L18.78 33.3095L18.792 33.305L18.834 33.2795C21.8346 31.6365 24.6575 29.6882 27.258 27.4655C31.398 23.8955 36 18.5375 36 12.125C36 6.131 31.3065 2 26.4375 2ZM25.059 24.9125C22.8681 26.7873 20.5062 28.4525 18.0045 29.8865L17.9985 29.8835L17.9925 29.8865C15.4917 28.4511 13.13 26.7859 10.938 24.9125C6.9225 21.452 3.3675 16.9655 3.3675 12.128C3.3675 7.997 6.549 5.378 9.555 5.378C12.645 5.378 15.426 7.5965 16.371 10.904C16.5855 11.6465 17.265 12.0995 18 12.098C18.735 12.0995 19.4145 11.645 19.6275 10.904C20.5725 7.5965 23.3535 5.378 26.4435 5.378C29.4495 5.378 32.631 7.997 32.631 12.128C32.631 16.9655 29.076 21.452 25.059 24.9125Z" fill="black"/>
</svg>
